<?xml version="1.0" encoding="UTF-8"?>
<!DOCTYPE svg PUBLIC "-//W3C//DTD SVG 1.1//EN" "http://www.w3.org/Graphics/SVG/1.1/DTD/svg11.dtd">
<svg xmlns="http://www.w3.org/2000/svg" version="1.1" width="500px" height="500px" style="shape-rendering:geometricPrecision; text-rendering:geometricPrecision; image-rendering:optimizeQuality; fill-rule:evenodd; clip-rule:evenodd" xmlns:xlink="http://www.w3.org/1999/xlink">
<g><path style="opacity:1" fill="#dddcd7" d="M 244.5,148.5 C 298.698,149.882 333.198,176.548 348,228.5C 355.326,275.336 339.159,311.503 299.5,337C 262.563,355.907 226.563,354.24 191.5,332C 152.799,301.222 140.632,262.055 155,214.5C 171.877,174.822 201.71,152.822 244.5,148.5 Z"/></g>
<g><path style="opacity:1" fill="#2c2b28" d="M 237.5,159.5 C 289.465,157.218 322.965,180.885 338,230.5C 344.549,276.57 327.383,310.403 286.5,332C 239.074,349.367 200.908,337.533 172,296.5C 149.136,251.949 155.969,212.782 192.5,179C 205.926,168.615 220.926,162.115 237.5,159.5 Z"/></g>
<g><path style="opacity:1" fill="#dfdfd9" d="M 235.5,161.5 C 285.563,158.425 318.73,180.425 335,227.5C 342.66,265.526 331.493,296.693 301.5,321C 268.784,341.788 235.451,342.788 201.5,324C 169.342,300.555 156.509,269.055 163,229.5C 174.157,192.84 198.324,170.173 235.5,161.5 Z"/></g>
<g><path style="opacity:1" fill="#63615c" d="M 233.5,234.5 C 233.5,234.167 233.5,233.833 233.5,233.5C 237.833,233.5 242.167,233.5 246.5,233.5C 246.167,234.167 245.833,234.833 245.5,235.5C 241.6,234.57 237.6,234.237 233.5,234.5 Z"/></g>
<g><path style="opacity:1" fill="#2a2929" d="M 249.5,204.5 C 250.209,203.596 251.209,203.263 252.5,203.5C 268.101,206.041 272.601,214.375 266,228.5C 261.838,231.169 257.338,233.169 252.5,234.5C 258.953,247.248 266.287,259.414 274.5,271C 270.848,271.499 267.182,271.665 263.5,271.5C 263.657,270.127 263.49,268.793 263,267.5C 256.909,256.926 251.076,246.259 245.5,235.5C 245.833,234.833 246.167,234.167 246.5,233.5C 260.106,231.957 264.939,224.623 261,211.5C 258.149,207.494 254.315,205.16 249.5,204.5 Z"/></g>
<g><path style="opacity:1" fill="#282827" d="M 231.5,203.5 C 232.492,203.328 233.158,203.662 233.5,204.5C 233.5,214.167 233.5,223.833 233.5,233.5C 233.5,233.833 233.5,234.167 233.5,234.5C 233.333,245.838 233.5,257.172 234,268.5C 234.374,269.416 234.874,270.25 235.5,271C 231.833,271.667 228.167,271.667 224.5,271C 225.126,270.25 225.626,269.416 226,268.5C 226.667,247.833 226.667,227.167 226,206.5C 225.308,205.975 224.808,205.308 224.5,204.5C 226.743,203.526 229.076,203.192 231.5,203.5 Z"/></g>
<g><path style="opacity:1" fill="#dfded8" d="M 249.5,204.5 C 254.315,205.16 258.149,207.494 261,211.5C 264.939,224.623 260.106,231.957 246.5,233.5C 242.167,233.5 237.833,233.5 233.5,233.5C 233.5,223.833 233.5,214.167 233.5,204.5C 238.847,203.225 244.18,203.225 249.5,204.5 Z"/></g>
<g><path style="opacity:1" fill="#716f6b" d="M 231.5,203.5 C 238.5,202.167 245.5,202.167 252.5,203.5C 251.209,203.263 250.209,203.596 249.5,204.5C 244.18,203.225 238.847,203.225 233.5,204.5C 233.158,203.662 232.492,203.328 231.5,203.5 Z"/></g>
<g><path style="opacity:1" fill="#53524d" d="M 186.5,289.5 C 185.081,290.451 183.415,290.784 181.5,290.5C 181.5,287.833 181.5,285.167 181.5,282.5C 186.501,281.671 188.668,283.671 188,288.5C 187.617,289.056 187.117,289.389 186.5,289.5 Z"/></g>
<g><path style="opacity:1" fill="#35352f" d="M 261.5,283.5 C 263.288,282.378 265.288,282.211 267.5,283C 265.862,285.133 265.029,287.633 265,290.5C 264.503,288.19 264.337,285.857 264.5,283.5C 263.5,283.5 262.5,283.5 261.5,283.5 Z"/></g>
<g><path style="opacity:1" fill="#5d5c57" d="M 282.5,282.5 C 284.429,282.231 286.095,282.731 287.5,284C 282.317,283.576 282.15,284.743 287,287.5C 287.617,288.449 287.451,289.282 286.5,290C 281.999,290.663 281.665,290.163 285.5,288.5C 282.479,287.227 281.479,285.227 282.5,282.5 Z"/></g>
<g><path style="opacity:1" fill="#686862" d="M 301.5,282.5 C 303.199,282.34 304.866,282.506 306.5,283C 302.622,283.949 302.622,285.115 306.5,286.5C 302.622,287.885 302.622,289.051 306.5,290C 304.866,290.494 303.199,290.66 301.5,290.5C 301.5,287.833 301.5,285.167 301.5,282.5 Z"/></g>
<g><path style="opacity:1" fill="#4d4c47" d="M 272.5,282.5 C 278.324,282.347 278.657,283.013 273.5,284.5C 277.5,285.833 277.5,287.167 273.5,288.5C 278.657,289.987 278.324,290.653 272.5,290.5C 272.5,287.833 272.5,285.167 272.5,282.5 Z"/></g>
<g><path style="opacity:1" fill="#6d6c67" d="M 291.5,283.5 C 293.288,282.378 295.288,282.211 297.5,283C 296.004,285.201 295.004,287.701 294.5,290.5C 294.062,287.705 293.062,285.372 291.5,283.5 Z"/></g>
<g><path style="opacity:1" fill="#474742" d="M 235.5,283.5 C 236.434,284.568 236.768,285.901 236.5,287.5C 235.167,287.5 233.833,287.5 232.5,287.5C 232.649,288.552 232.483,289.552 232,290.5C 231.503,287.854 231.336,285.187 231.5,282.5C 233.099,282.232 234.432,282.566 235.5,283.5 Z"/></g>
<g><path style="opacity:1" fill="#cbcbc5" d="M 235.5,283.5 C 235.5,284.5 235.5,285.5 235.5,286.5C 234.5,286.5 233.5,286.5 232.5,286.5C 232.5,285.5 232.5,284.5 232.5,283.5C 233.5,283.5 234.5,283.5 235.5,283.5 Z"/></g>
<g><path style="opacity:1" fill="#5c5c56" d="M 253.5,285.5 C 252.698,286.952 252.198,288.618 252,290.5C 251.333,287.833 251.333,285.167 252,282.5C 253.039,283.244 253.539,284.244 253.5,285.5 Z"/></g>
<g><path style="opacity:1" fill="#3a3a34" d="M 253.5,285.5 C 254.458,285.953 255.292,286.619 256,287.5C 256.333,285.833 256.667,284.167 257,282.5C 257.667,285.167 257.667,287.833 257,290.5C 255.198,289.211 254.031,287.544 253.5,285.5 Z"/></g>
<g><path style="opacity:1" fill="#494843" d="M 311.5,282.5 C 313.199,282.34 314.866,282.506 316.5,283C 317.022,283.561 317.355,284.228 317.5,285C 317.026,286.704 316.859,288.538 317,290.5C 316.092,288.561 314.592,287.561 312.5,287.5C 312.649,288.552 312.483,289.552 312,290.5C 311.503,287.854 311.336,285.187 311.5,282.5 Z"/></g>
<g><path style="opacity:1" fill="#d6d5d1" d="M 312.5,283.5 C 313.5,283.5 314.5,283.5 315.5,283.5C 315.5,284.5 315.5,285.5 315.5,286.5C 314.5,286.5 313.5,286.5 312.5,286.5C 312.5,285.5 312.5,284.5 312.5,283.5 Z"/></g>
<g><path style="opacity:1" fill="#cbcac5" d="M 186.5,289.5 C 185.167,289.5 183.833,289.5 182.5,289.5C 182.5,287.5 182.5,285.5 182.5,283.5C 186.068,283.759 187.401,285.759 186.5,289.5 Z"/></g>
<g><path style="opacity:1" fill="#696763" d="M 192.5,282.5 C 194.199,282.34 195.866,282.506 197.5,283C 193.622,283.949 193.622,285.115 197.5,286.5C 193.622,287.885 193.622,289.051 197.5,290C 195.866,290.494 194.199,290.66 192.5,290.5C 192.5,287.833 192.5,285.167 192.5,282.5 Z"/></g>
<g><path style="opacity:1" fill="#32322d" d="M 241.5,282.5 C 247.167,282.664 247.5,282.997 242.5,283.5C 242.5,285.5 242.5,287.5 242.5,289.5C 247.5,290.003 247.167,290.336 241.5,290.5C 241.5,287.833 241.5,285.167 241.5,282.5 Z"/></g>
<g><path style="opacity:1" fill="#5b5a55" d="M 207.5,282.5 C 208.737,285.558 207.904,288.224 205,290.5C 203.41,288.35 202.743,286.017 203,283.5C 204.886,288.539 206.386,288.205 207.5,282.5 Z"/></g>
</svg>
